<?xml version="1.0" standalone="no"?>
<!DOCTYPE svg PUBLIC "-//W3C//DTD SVG 20010904//EN"
 "http://www.w3.org/TR/2001/REC-SVG-20010904/DTD/svg10.dtd">
<svg version="1.0" xmlns="http://www.w3.org/2000/svg"
 width="64.000000pt" height="64.000000pt" viewBox="0 0 64.000000 64.000000"
 preserveAspectRatio="xMidYMid meet">

<g transform="translate(0.000000,64.000000) scale(0.100000,-0.100000)"
fill="#000000" stroke="none">
<path d="M283 619 c-33 -10 -73 -55 -73 -83 0 -13 -12 -16 -59 -16 -35 0 -63
-5 -69 -12 -5 -7 -16 -102 -23 -211 -11 -171 -11 -200 2 -208 18 -11 500 -11
518 0 13 8 13 37 2 208 -14 226 -13 223 -98 223 -46 0 -53 3 -53 19 0 22 -55
81 -75 81 -7 0 -19 2 -27 4 -7 2 -27 0 -45 -5z m108 -38 c52 -53 42 -61 -71
-61 -113 0 -123 8 -71 61 23 23 38 29 71 29 33 0 48 -6 71 -29z m177 -253 c7
-95 12 -185 12 -200 l0 -28 -261 0 -262 0 7 108 c3 59 9 140 13 180 l6 72 173
0 c109 0 174 4 174 10 0 6 -65 10 -176 10 -114 0 -173 3 -169 10 4 6 95 10
239 10 l232 0 12 -172z"/>
<path d="M470 470 c0 -5 9 -10 20 -10 11 0 20 5 20 10 0 6 -9 10 -20 10 -11 0
-20 -4 -20 -10z"/>
<path d="M200 380 c4 -8 13 -27 18 -42 32 -81 172 -81 204 0 5 15 14 34 18 42
5 11 2 16 -9 16 -13 0 -16 -7 -13 -23 3 -15 -5 -32 -26 -53 -43 -42 -101 -42
-144 0 -21 21 -29 38 -26 53 3 16 0 23 -13 23 -11 0 -14 -5 -9 -16z"/>
<path d="M80 140 c0 -5 5 -10 10 -10 6 0 10 5 10 10 0 6 -4 10 -10 10 -5 0
-10 -4 -10 -10z"/>
<path d="M130 140 c0 -5 5 -10 10 -10 6 0 10 5 10 10 0 6 -4 10 -10 10 -5 0
-10 -4 -10 -10z"/>
<path d="M180 140 c0 -5 5 -10 10 -10 6 0 10 5 10 10 0 6 -4 10 -10 10 -5 0
-10 -4 -10 -10z"/>
<path d="M230 140 c0 -5 5 -10 10 -10 6 0 10 5 10 10 0 6 -4 10 -10 10 -5 0
-10 -4 -10 -10z"/>
<path d="M280 140 c0 -5 5 -10 10 -10 6 0 10 5 10 10 0 6 -4 10 -10 10 -5 0
-10 -4 -10 -10z"/>
<path d="M340 140 c0 -5 5 -10 10 -10 6 0 10 5 10 10 0 6 -4 10 -10 10 -5 0
-10 -4 -10 -10z"/>
<path d="M390 140 c0 -5 5 -10 10 -10 6 0 10 5 10 10 0 6 -4 10 -10 10 -5 0
-10 -4 -10 -10z"/>
<path d="M440 140 c0 -5 5 -10 10 -10 6 0 10 5 10 10 0 6 -4 10 -10 10 -5 0
-10 -4 -10 -10z"/>
<path d="M490 140 c0 -5 5 -10 10 -10 6 0 10 5 10 10 0 6 -4 10 -10 10 -5 0
-10 -4 -10 -10z"/>
<path d="M540 140 c0 -5 5 -10 10 -10 6 0 10 5 10 10 0 6 -4 10 -10 10 -5 0
-10 -4 -10 -10z"/>
</g>
</svg>
